{
  "accessors": [
    {
      "bufferView": 2,
      "componentType": 5126,
      "count": 18519,
      "max": [
        0.4287720024585724,
        0.3064430058002472,
        1.25
      ],
      "min": [
        -0.4287720024585724,
        -0.3064430058002472,
        -1.25
      ],
      "type": "VEC3"
    },
    {
      "bufferView": 2,
      "byteOffset": 222228,
      "componentType": 5126,
      "count": 18519,
      "max": [
        0.9999503493309021,
        0.9999916553497314,
        0.999975860118866
      ],
      "min": [
        -0.9999504685401917,
        -0.9999439120292664,
        -0.9998456835746765
      ],
      "type": "VEC3"
    },
    {
      "bufferView": 1,
      "componentType": 5126,
      "count": 18519,
      "max": [
        119.22450256347656,
        54.647098541259766
      ],
      "min": [
        0.0005000000237487257,
        -16.25860023498535
      ],
      "type": "VEC2"
    },
    {
      "bufferView": 0,
      "componentType": 5125,
      "count": 89919,
      "type": "SCALAR"
    }
  ],
  "asset": {
    "extras": {
      "author": "Tahseen (https://sketchfab.com/c58619296)",
      "license": "CC-BY-4.0 (http://creativecommons.org/licenses/by/4.0/)",
      "source": "https://sketchfab.com/3d-models/business-man-201cb4458f854993a8e23402ef852a12",
      "title": "Business man"
    },
    "generator": "Sketchfab-15.36.0",
    "version": "2.0"
  },
  "bufferViews": [
    {
      "buffer": 0,
      "byteLength": 359676,
      "name": "floatBufferViews",
      "target": 34963
    },
    {
      "buffer": 0,
      "byteLength": 148152,
      "byteOffset": 359676,
      "byteStride": 8,
      "name": "floatBufferViews",
      "target": 34962
    },
    {
      "buffer": 0,
      "byteLength": 444456,
      "byteOffset": 507828,
      "byteStride": 12,
      "name": "floatBufferViews",
      "target": 34962
    }
  ],
  "buffers": [
    {
      "byteLength": 952284,
      "uri": "scene.bin"
    }
  ],
  "images": [
    {
      "uri": "textures/mat_0-RP_Man_Dennis_0263_dif.jpg_baseColor.jpeg"
    }
  ],
  "materials": [
    {
      "doubleSided": true,
      "name": "mat_0-RP_Man_Dennis_0263_dif.jpg",
      "pbrMetallicRoughness": {
        "baseColorTexture": {
          "index": 0
        },
        "metallicFactor": 0.0
      }
    }
  ],
  "meshes": [
    {
      "name": "Object_0",
      "primitives": [
        {
          "attributes": {
            "NORMAL": 1,
            "POSITION": 0,
            "TEXCOORD_0": 2
          },
          "indices": 3,
          "material": 0,
          "mode": 4
        }
      ]
    }
  ],
  "nodes": [
    {
      "children": [
        1
      ],
      "matrix": [
        1.0,
        0.0,
        0.0,
        0.0,
        0.0,
        2.220446049250313e-16,
        -1.0,
        0.0,
        0.0,
        1.0,
        2.220446049250313e-16,
        0.0,
        0.0,
        0.0,
        0.0,
        1.0
      ],
      "name": "Sketchfab_model"
    },
    {
      "children": [
        2
      ],
      "name": "FOJ2MULKIHNSR8M6QU2WGIHW5.obj.cleaner.materialmerger.gles"
    },
    {
      "mesh": 0,
      "name": "Object_2"
    }
  ],
  "samplers": [
    {
      "magFilter": 9729,
      "minFilter": 9987,
      "wrapS": 10497,
      "wrapT": 10497
    }
  ],
  "scene": 0,
  "scenes": [
    {
      "name": "Sketchfab_Scene",
      "nodes": [
        0
      ]
    }
  ],
  "textures": [
    {
      "sampler": 0,
      "source": 0
    }
  ]
}
